<mxfile host="Electron" modified="2025-01-19T02:28:36.670Z" agent="Mozilla/5.0 (X11; Linux x86_64) AppleWebKit/537.36 (KHTML, like Gecko) draw.io/22.0.0 Chrome/114.0.5735.289 Electron/25.8.3 Safari/537.36" etag="-XsesG0xUcs_GXzSFe8L" version="22.0.0" type="device">
  <diagram name="Page-1" id="0CGOOBUTLGjTgzBnrG9G">
    <mxGraphModel dx="412" dy="230" grid="1" gridSize="10" guides="1" tooltips="1" connect="1" arrows="1" fold="1" page="1" pageScale="1" pageWidth="1100" pageHeight="850" math="0" shadow="0">
      <root>
        <mxCell id="0" />
        <mxCell id="1" parent="0" />
        <mxCell id="ngD7Du4AolYwz8PnNw0p-12" style="edgeStyle=orthogonalEdgeStyle;rounded=0;orthogonalLoop=1;jettySize=auto;html=1;exitX=1;exitY=0.5;exitDx=0;exitDy=0;entryX=0;entryY=0.5;entryDx=0;entryDy=0;startArrow=classic;startFill=1;" edge="1" parent="1" source="ngD7Du4AolYwz8PnNw0p-1" target="ngD7Du4AolYwz8PnNw0p-4">
          <mxGeometry relative="1" as="geometry" />
        </mxCell>
        <mxCell id="ngD7Du4AolYwz8PnNw0p-23" value="(A)" style="edgeLabel;html=1;align=center;verticalAlign=middle;resizable=0;points=[];" vertex="1" connectable="0" parent="ngD7Du4AolYwz8PnNw0p-12">
          <mxGeometry x="0.0445" y="-3" relative="1" as="geometry">
            <mxPoint x="1" as="offset" />
          </mxGeometry>
        </mxCell>
        <mxCell id="ngD7Du4AolYwz8PnNw0p-1" value="FD Database" style="shape=datastore;whiteSpace=wrap;html=1;" vertex="1" parent="1">
          <mxGeometry x="200" y="455" width="60" height="60" as="geometry" />
        </mxCell>
        <mxCell id="ngD7Du4AolYwz8PnNw0p-34" style="edgeStyle=orthogonalEdgeStyle;rounded=0;orthogonalLoop=1;jettySize=auto;html=1;exitX=0.5;exitY=0;exitDx=0;exitDy=0;entryX=0;entryY=0.75;entryDx=0;entryDy=0;startArrow=classic;startFill=1;" edge="1" parent="1" source="ngD7Du4AolYwz8PnNw0p-2" target="ngD7Du4AolYwz8PnNw0p-7">
          <mxGeometry relative="1" as="geometry" />
        </mxCell>
        <mxCell id="ngD7Du4AolYwz8PnNw0p-35" value="(E)" style="edgeLabel;html=1;align=center;verticalAlign=middle;resizable=0;points=[];" vertex="1" connectable="0" parent="ngD7Du4AolYwz8PnNw0p-34">
          <mxGeometry x="0.2603" y="-3" relative="1" as="geometry">
            <mxPoint as="offset" />
          </mxGeometry>
        </mxCell>
        <mxCell id="ngD7Du4AolYwz8PnNw0p-2" value="Analytics&lt;br&gt;Database" style="shape=datastore;whiteSpace=wrap;html=1;" vertex="1" parent="1">
          <mxGeometry x="655" y="568" width="60" height="60" as="geometry" />
        </mxCell>
        <mxCell id="ngD7Du4AolYwz8PnNw0p-13" style="edgeStyle=orthogonalEdgeStyle;rounded=0;orthogonalLoop=1;jettySize=auto;html=1;exitX=1;exitY=0.5;exitDx=0;exitDy=0;entryX=0;entryY=0.5;entryDx=0;entryDy=0;startArrow=classic;startFill=1;" edge="1" parent="1" source="ngD7Du4AolYwz8PnNw0p-4" target="ngD7Du4AolYwz8PnNw0p-5">
          <mxGeometry relative="1" as="geometry" />
        </mxCell>
        <mxCell id="ngD7Du4AolYwz8PnNw0p-24" value="(B)" style="edgeLabel;html=1;align=center;verticalAlign=middle;resizable=0;points=[];" vertex="1" connectable="0" parent="ngD7Du4AolYwz8PnNw0p-13">
          <mxGeometry x="0.004" y="-2" relative="1" as="geometry">
            <mxPoint as="offset" />
          </mxGeometry>
        </mxCell>
        <mxCell id="ngD7Du4AolYwz8PnNw0p-4" value="Stream generator&amp;nbsp;&lt;br&gt;service" style="rounded=1;whiteSpace=wrap;html=1;" vertex="1" parent="1">
          <mxGeometry x="310" y="455" width="120" height="60" as="geometry" />
        </mxCell>
        <mxCell id="ngD7Du4AolYwz8PnNw0p-14" style="edgeStyle=orthogonalEdgeStyle;rounded=0;orthogonalLoop=1;jettySize=auto;html=1;exitX=0.25;exitY=0;exitDx=0;exitDy=0;entryX=0.25;entryY=1;entryDx=0;entryDy=0;" edge="1" parent="1" source="ngD7Du4AolYwz8PnNw0p-5" target="ngD7Du4AolYwz8PnNw0p-11">
          <mxGeometry relative="1" as="geometry" />
        </mxCell>
        <mxCell id="ngD7Du4AolYwz8PnNw0p-31" value="(J)" style="edgeLabel;html=1;align=center;verticalAlign=middle;resizable=0;points=[];" vertex="1" connectable="0" parent="ngD7Du4AolYwz8PnNw0p-14">
          <mxGeometry x="0.0652" y="-4" relative="1" as="geometry">
            <mxPoint as="offset" />
          </mxGeometry>
        </mxCell>
        <mxCell id="ngD7Du4AolYwz8PnNw0p-32" style="edgeStyle=orthogonalEdgeStyle;rounded=0;orthogonalLoop=1;jettySize=auto;html=1;entryX=0;entryY=0.5;entryDx=0;entryDy=0;exitX=0.5;exitY=1;exitDx=0;exitDy=0;startArrow=classic;startFill=1;" edge="1" parent="1" source="ngD7Du4AolYwz8PnNw0p-5" target="ngD7Du4AolYwz8PnNw0p-2">
          <mxGeometry relative="1" as="geometry" />
        </mxCell>
        <mxCell id="ngD7Du4AolYwz8PnNw0p-33" value="(C)" style="edgeLabel;html=1;align=center;verticalAlign=middle;resizable=0;points=[];" vertex="1" connectable="0" parent="ngD7Du4AolYwz8PnNw0p-32">
          <mxGeometry x="0.1547" y="-1" relative="1" as="geometry">
            <mxPoint as="offset" />
          </mxGeometry>
        </mxCell>
        <mxCell id="ngD7Du4AolYwz8PnNw0p-37" style="edgeStyle=orthogonalEdgeStyle;rounded=0;orthogonalLoop=1;jettySize=auto;html=1;exitX=1;exitY=0.25;exitDx=0;exitDy=0;entryX=0;entryY=0.25;entryDx=0;entryDy=0;startArrow=classic;startFill=1;" edge="1" parent="1" source="ngD7Du4AolYwz8PnNw0p-5" target="ngD7Du4AolYwz8PnNw0p-7">
          <mxGeometry relative="1" as="geometry" />
        </mxCell>
        <mxCell id="ngD7Du4AolYwz8PnNw0p-38" value="(D)" style="edgeLabel;html=1;align=center;verticalAlign=middle;resizable=0;points=[];" vertex="1" connectable="0" parent="ngD7Du4AolYwz8PnNw0p-37">
          <mxGeometry x="0.0497" y="-3" relative="1" as="geometry">
            <mxPoint as="offset" />
          </mxGeometry>
        </mxCell>
        <mxCell id="ngD7Du4AolYwz8PnNw0p-5" value="Restful API" style="rounded=1;whiteSpace=wrap;html=1;" vertex="1" parent="1">
          <mxGeometry x="480" y="455" width="120" height="60" as="geometry" />
        </mxCell>
        <mxCell id="ngD7Du4AolYwz8PnNw0p-20" style="edgeStyle=orthogonalEdgeStyle;rounded=0;orthogonalLoop=1;jettySize=auto;html=1;exitX=0.5;exitY=0;exitDx=0;exitDy=0;entryX=0.5;entryY=1;entryDx=0;entryDy=0;" edge="1" parent="1" source="ngD7Du4AolYwz8PnNw0p-7" target="ngD7Du4AolYwz8PnNw0p-8">
          <mxGeometry relative="1" as="geometry" />
        </mxCell>
        <mxCell id="ngD7Du4AolYwz8PnNw0p-28" value="(G)" style="edgeLabel;html=1;align=center;verticalAlign=middle;resizable=0;points=[];" vertex="1" connectable="0" parent="ngD7Du4AolYwz8PnNw0p-20">
          <mxGeometry x="-0.0117" y="-2" relative="1" as="geometry">
            <mxPoint as="offset" />
          </mxGeometry>
        </mxCell>
        <mxCell id="ngD7Du4AolYwz8PnNw0p-7" value="Web application" style="rounded=1;whiteSpace=wrap;html=1;" vertex="1" parent="1">
          <mxGeometry x="780" y="455" width="120" height="60" as="geometry" />
        </mxCell>
        <mxCell id="ngD7Du4AolYwz8PnNw0p-15" style="edgeStyle=orthogonalEdgeStyle;rounded=0;orthogonalLoop=1;jettySize=auto;html=1;exitX=0.5;exitY=0;exitDx=0;exitDy=0;entryX=0.5;entryY=1;entryDx=0;entryDy=0;" edge="1" parent="1" source="ngD7Du4AolYwz8PnNw0p-8" target="ngD7Du4AolYwz8PnNw0p-9">
          <mxGeometry relative="1" as="geometry" />
        </mxCell>
        <mxCell id="ngD7Du4AolYwz8PnNw0p-29" value="(H)" style="edgeLabel;html=1;align=center;verticalAlign=middle;resizable=0;points=[];" vertex="1" connectable="0" parent="ngD7Du4AolYwz8PnNw0p-15">
          <mxGeometry x="-0.0614" y="-3" relative="1" as="geometry">
            <mxPoint as="offset" />
          </mxGeometry>
        </mxCell>
        <mxCell id="ngD7Du4AolYwz8PnNw0p-16" style="edgeStyle=orthogonalEdgeStyle;rounded=0;orthogonalLoop=1;jettySize=auto;html=1;exitX=0;exitY=0.5;exitDx=0;exitDy=0;entryX=0.75;entryY=1;entryDx=0;entryDy=0;" edge="1" parent="1" source="ngD7Du4AolYwz8PnNw0p-8" target="ngD7Du4AolYwz8PnNw0p-11">
          <mxGeometry relative="1" as="geometry" />
        </mxCell>
        <mxCell id="ngD7Du4AolYwz8PnNw0p-30" value="(I)" style="edgeLabel;html=1;align=center;verticalAlign=middle;resizable=0;points=[];" vertex="1" connectable="0" parent="ngD7Du4AolYwz8PnNw0p-16">
          <mxGeometry x="0.0525" y="3" relative="1" as="geometry">
            <mxPoint as="offset" />
          </mxGeometry>
        </mxCell>
        <mxCell id="ngD7Du4AolYwz8PnNw0p-8" value="Browser based&lt;br&gt;GUI" style="rounded=1;whiteSpace=wrap;html=1;" vertex="1" parent="1">
          <mxGeometry x="780" y="345" width="120" height="60" as="geometry" />
        </mxCell>
        <mxCell id="ngD7Du4AolYwz8PnNw0p-9" value="Non-technical&lt;br&gt;Users" style="rounded=1;whiteSpace=wrap;html=1;" vertex="1" parent="1">
          <mxGeometry x="780" y="225" width="120" height="60" as="geometry" />
        </mxCell>
        <mxCell id="ngD7Du4AolYwz8PnNw0p-19" style="edgeStyle=orthogonalEdgeStyle;rounded=0;orthogonalLoop=1;jettySize=auto;html=1;exitX=0.5;exitY=0;exitDx=0;exitDy=0;entryX=0.5;entryY=1;entryDx=0;entryDy=0;startArrow=classic;startFill=1;" edge="1" parent="1" source="ngD7Du4AolYwz8PnNw0p-10" target="ngD7Du4AolYwz8PnNw0p-7">
          <mxGeometry relative="1" as="geometry" />
        </mxCell>
        <mxCell id="ngD7Du4AolYwz8PnNw0p-27" value="(F)" style="edgeLabel;html=1;align=center;verticalAlign=middle;resizable=0;points=[];" vertex="1" connectable="0" parent="ngD7Du4AolYwz8PnNw0p-19">
          <mxGeometry x="0.1637" y="-1" relative="1" as="geometry">
            <mxPoint as="offset" />
          </mxGeometry>
        </mxCell>
        <mxCell id="ngD7Du4AolYwz8PnNw0p-10" value="ML pipeline" style="rounded=1;whiteSpace=wrap;html=1;" vertex="1" parent="1">
          <mxGeometry x="780" y="565" width="120" height="60" as="geometry" />
        </mxCell>
        <mxCell id="ngD7Du4AolYwz8PnNw0p-11" value="Technical&amp;nbsp;&lt;br&gt;Users" style="rounded=1;whiteSpace=wrap;html=1;" vertex="1" parent="1">
          <mxGeometry x="480" y="225" width="120" height="60" as="geometry" />
        </mxCell>
      </root>
    </mxGraphModel>
  </diagram>
</mxfile>
